<svg version="1.1" id="Layer_1" xmlns="http://www.w3.org/2000/svg" xmlns:xlink="http://www.w3.org/1999/xlink" x="0px" y="0px"
	 width="100%" viewBox="0 0 576 592" enable-background="new 0 0 576 592" xml:space="preserve">
<path fill="#0D9488" opacity="1.000000" stroke="none" 
	d="
M317.890015,401.900452 
	C300.060760,416.386200 280.684265,417.647522 264.537018,403.489105 
	C256.127075,396.114990 248.915100,387.125854 240.940536,379.058350 
	C236.687851,374.756165 235.877655,368.576355 236.436615,362.659393 
	C236.771210,359.117310 235.603485,358.277466 232.410614,358.309387 
	C222.084244,358.412628 211.756104,358.365936 201.428833,358.325836 
	C199.636337,358.318878 197.769363,358.702942 195.688354,357.545013 
	C195.016998,345.625153 198.193573,334.440552 203.581650,323.811096 
	C210.625885,309.914520 221.006638,299.157166 234.773071,291.797668 
	C237.481369,290.349823 237.807968,288.174133 237.796860,285.545563 
	C237.756058,275.884644 238.352463,266.182739 237.655792,256.572601 
	C236.788666,244.611160 240.642960,235.133331 248.705292,226.340637 
	C259.936371,214.092133 270.283661,201.032288 280.983368,188.297943 
	C286.937592,181.211456 292.911469,181.119156 298.862885,188.167847 
	C311.315857,202.916763 323.640808,217.775146 336.216492,232.418381 
	C340.504761,237.411697 342.178772,243.048645 342.195435,249.391190 
	C342.226501,261.217682 342.359497,273.046692 342.152679,284.869415 
	C342.086395,288.657745 343.303955,290.686096 346.660858,292.695648 
	C370.195862,306.784729 383.193817,327.411316 384.341705,355.102600 
	C384.362305,355.600128 384.356964,356.104797 384.295166,356.597504 
	C384.255585,356.913055 384.089935,357.212769 383.866150,357.841858 
	C380.809723,358.837036 377.474945,358.280792 374.215424,358.313110 
	C365.388031,358.400665 356.558380,358.410522 347.731323,358.307007 
	C344.647064,358.270844 343.167175,359.063232 343.422668,362.574890 
	C344.274353,374.280945 338.950775,382.679993 328.871735,388.219940 
	C326.872192,389.318970 325.336151,390.632324 324.440369,392.716736 
	C322.971436,396.134705 320.646759,398.955231 317.890015,401.900452 
M257.306458,274.499969 
	C257.311798,294.148773 257.433014,313.798767 257.234650,333.445526 
	C257.189484,337.917816 258.783630,339.158875 263.037994,339.114960 
	C280.853333,338.931030 298.673248,338.872406 316.487274,339.098846 
	C321.218872,339.158966 322.821075,337.838715 322.783447,332.941345 
	C322.577209,306.134033 322.602570,279.323639 322.791290,252.516006 
	C322.821686,248.196747 321.583588,244.896576 318.816040,241.718201 
	C311.495758,233.311249 304.472687,224.644379 297.103302,216.281952 
	C294.785370,213.651688 293.208771,210.132248 289.411194,208.543991 
	C281.152374,218.339783 273.483246,228.435745 264.729675,237.482437 
	C258.448578,243.973846 256.395111,250.940216 257.229401,259.520447 
	C257.678497,264.139130 257.308197,268.837524 257.306458,274.499969 
M305.581757,386.060669 
	C307.563568,383.359711 309.352295,380.538177 309.661377,377.110626 
	C310.058594,372.705902 311.462433,370.138428 316.779205,370.863312 
	C321.030273,371.442932 324.816467,367.776581 324.339844,364.144348 
	C323.808105,360.091797 321.141724,358.301910 316.995056,358.318726 
	C299.045837,358.391418 281.096161,358.333954 263.146759,358.375488 
	C258.461243,358.386353 255.951767,360.699707 256.021271,364.685760 
	C256.088715,368.552795 258.888763,371.385406 263.431366,370.824463 
	C268.192749,370.236542 269.539062,372.402313 270.140900,376.376251 
	C271.523468,385.505676 277.250946,390.846893 285.836273,393.076019 
	C293.490204,395.063263 299.794830,392.028656 305.581757,386.060669 
M224.643280,326.097534 
	C222.258423,329.919861 218.920349,333.331451 219.095337,338.892029 
	C224.932480,338.892029 230.521576,338.936707 236.109192,338.865631 
	C237.856918,338.843445 238.874588,337.702179 238.885269,335.976562 
	C238.931870,328.440399 238.905319,320.903778 238.905319,312.347382 
	C232.577011,316.102356 228.638458,320.611969 224.643280,326.097534 
M346.506989,316.053650 
	C344.880737,315.147614 343.978210,312.852173 341.107849,313.485657 
	C341.107849,320.898895 341.091217,328.332977 341.122437,335.766846 
	C341.128387,337.184937 341.640167,338.607697 343.221619,338.715607 
	C349.218292,339.124817 355.227997,339.389374 361.644012,338.532349 
	C358.547668,329.244965 353.436584,322.451874 346.506989,316.053650 
z"/>
<path fill="#0D9488" opacity="1.000000" stroke="none" 
	d="
M290.837860,281.281586 
	C283.172485,280.747192 278.993866,277.603394 277.154541,271.312042 
	C275.758972,266.538483 277.757812,260.604218 281.811676,257.485870 
	C286.320587,254.017471 292.257751,253.773209 297.221313,256.851929 
	C301.417084,259.454407 304.208221,265.339813 303.150391,270.194244 
	C301.769470,276.531403 297.726532,280.267273 290.837860,281.281586 
z"/>
</svg>